<?xml version="1.0" encoding="UTF-8" standalone="no"?>
<svg
   xmlns:dc="http://purl.org/dc/elements/1.1/"
   xmlns:cc="http://creativecommons.org/ns#"
   xmlns:rdf="http://www.w3.org/1999/02/22-rdf-syntax-ns#"
   xmlns:svg="http://www.w3.org/2000/svg"
   xmlns="http://www.w3.org/2000/svg"
   xmlns:xlink="http://www.w3.org/1999/xlink"
   xmlns:sodipodi="http://sodipodi.sourceforge.net/DTD/sodipodi-0.dtd"
   xmlns:inkscape="http://www.inkscape.org/namespaces/inkscape"
   inkscape:version="1.0 (4035a4fb49, 2020-05-01)"
   sodipodi:docname="tender-owl.svg"
   id="svg115"
   version="1.1"
   viewBox="0 0 389 493"
   height="493"
   width="389">
  <metadata
     id="metadata119">
    <rdf:RDF>
      <cc:Work
         rdf:about="">
        <dc:format>image/svg+xml</dc:format>
        <dc:type
           rdf:resource="http://purl.org/dc/dcmitype/StillImage" />
      </cc:Work>
    </rdf:RDF>
  </metadata>
  <sodipodi:namedview
     inkscape:current-layer="Head"
     inkscape:window-maximized="0"
     inkscape:window-y="30"
     inkscape:window-x="0"
     inkscape:cy="112.59456"
     inkscape:cx="186.66642"
     inkscape:zoom="1.2636917"
     showgrid="false"
     id="namedview117"
     inkscape:window-height="928"
     inkscape:window-width="1530"
     inkscape:pageshadow="2"
     inkscape:pageopacity="0"
     guidetolerance="10"
     gridtolerance="10"
     objecttolerance="10"
     borderopacity="1"
     bordercolor="#666666"
     pagecolor="#ffffff" />
  <title
     id="title2">Group</title>
  <desc
     id="desc4">Created using Figma</desc>
  <g
     transform="translate(-102 -147)"
     id="Canvas">
    <g
       id="Group">
      <g
         id="Fangs">
        <g
           id="Vector">
          <use
             id="use6"
             fill="#CC7D37"
             transform="matrix(-1 0 0 1 237 610)"
             xlink:href="#path0_fill" />
          <use
             id="use8"
             fill="#CC7D37"
             transform="matrix(-1 0 0 1 237 610)"
             xlink:href="#path1_stroke" />
        </g>
        <g
           id="g15">
          <use
             id="use11"
             fill="#CC7D37"
             transform="matrix(-1 0 0 1 281 610)"
             xlink:href="#path0_fill" />
          <use
             id="use13"
             fill="#CC7D37"
             transform="matrix(-1 0 0 1 281 610)"
             xlink:href="#path1_stroke" />
        </g>
      </g>
      <g
         id="Body">
        <use
           id="use18"
           fill="#703500"
           transform="translate(102 321)"
           xlink:href="#path2_fill" />
      </g>
      <g
         id="g25">
        <use
           id="use21"
           fill="#703500"
           transform="translate(230 148)"
           xlink:href="#path3_fill" />
        <use
           id="use23"
           fill="#783800"
           transform="translate(230 148)"
           xlink:href="#path4_stroke" />
      </g>
      <g
         id="Head">
        <mask
           mask-type="alpha"
           id="mask0_alpha">
          <g
             id="Ellipse">
            <use
               id="use27"
               fill="#CC7D37"
               transform="translate(242 160)"
               xlink:href="#path5_fill" />
          </g>
        </mask>
        <g
           mask="url(#mask0_alpha)"
           id="g33">
          <use
             id="use31"
             fill="#CC7D37"
             transform="translate(242 160)"
             xlink:href="#path5_fill" />
        </g>
        <g
           mask="url(#mask0_alpha)"
           id="g37" />
        <g
           mask="url(#mask0_alpha)"
           id="g41">
          <path
             d="m 536,279 c 0,65.722 -42.533,119 -95,119 -52.4671,0 -95,-53.278 -95,-119 0,-65.7219 42.5329,-119 95,-119 52.467,0 95,53.2781 95,119 z m -160,0 c 0,65.722 -42.533,119 -95,119 -52.4671,0 -95,-53.278 -95,-119 0,-65.7219 42.5329,-119 95,-119 52.467,0 95,53.2781 95,119 z"
             style="fill:#8c4303"
             id="use39" />
        </g>
        <g
           mask="url(#mask0_alpha)"
           id="Eyes">
          <g
             style="fill:#ffebd9;fill-opacity:1"
             id="g45">
            <use
               style="fill:#ffebd9;fill-opacity:1"
               id="use43"
               fill="#FFEBD9"
               transform="translate(271 225)"
               xlink:href="#path7_fill" />
          </g>
          <g
             style="fill:#ffebd9;fill-opacity:1"
             id="g49">
            <use
               style="fill:#ffebd9;fill-opacity:1"
               id="use47"
               fill="#FFEBD9"
               transform="translate(368 225)"
               xlink:href="#path7_fill" />
          </g>
          <g
             id="g53">
            <use
               id="use51"
               fill="#663204"
               transform="translate(396 252.448)"
               xlink:href="#path8_stroke" />
          </g>
          <g
             id="g57">
            <use
               id="use55"
               fill="#663204"
               transform="translate(299 252.448)"
               xlink:href="#path8_stroke" />
          </g>
        </g>
        <g
           style="opacity:1;fill:#cc7d37;fill-opacity:1"
           mask="url(#mask0_alpha)"
           id="g64">
          <use
             style="fill:#cc7d37;fill-opacity:1"
             id="use60"
             fill="#CC7D37"
             transform="translate(345 263)"
             xlink:href="#path9_fill" />
          <use
             style="fill:#cc7d37;fill-opacity:1"
             id="use62"
             fill="#CC7D37"
             transform="translate(345 263)"
             xlink:href="#path10_stroke" />
        </g>
      </g>
      <g
         id="Feathers">
        <g
           id="Vector 2">
          <use
             id="use67"
             fill="#FFB97A"
             transform="translate(167 440)"
             xlink:href="#path11_fill" />
          <use
             id="use69"
             fill="#A15F25"
             transform="translate(167 440)"
             xlink:href="#path12_stroke" />
        </g>
        <g
           id="Vector 2.1">
          <use
             id="use72"
             fill="#FFB97A"
             transform="translate(186 398)"
             xlink:href="#path11_fill" />
          <use
             id="use74"
             fill="#A15F25"
             transform="translate(186 398)"
             xlink:href="#path12_stroke" />
        </g>
        <g
           id="Vector 2.2">
          <use
             id="use77"
             fill="#FFB97A"
             transform="translate(208 423)"
             xlink:href="#path11_fill" />
          <use
             id="use79"
             fill="#A15F25"
             transform="translate(208 423)"
             xlink:href="#path12_stroke" />
        </g>
        <g
           id="Vector 2.5">
          <use
             id="use82"
             fill="#FFB97A"
             transform="translate(193 464)"
             xlink:href="#path11_fill" />
          <use
             id="use84"
             fill="#A15F25"
             transform="translate(193 464)"
             xlink:href="#path12_stroke" />
        </g>
        <g
           id="Vector 2.4">
          <use
             id="use87"
             fill="#FFB97A"
             transform="translate(152 480)"
             xlink:href="#path11_fill" />
          <use
             id="use89"
             fill="#A15F25"
             transform="translate(152 480)"
             xlink:href="#path12_stroke" />
        </g>
        <g
           id="Vector 2.3">
          <use
             id="use92"
             fill="#FFB97A"
             transform="translate(229 382)"
             xlink:href="#path11_fill" />
          <use
             id="use94"
             fill="#A15F25"
             transform="translate(229 382)"
             xlink:href="#path12_stroke" />
        </g>
      </g>
    </g>
  </g>
  <defs
     id="defs113">
    <path
       d="M 0 0L 17.4194 29C 17.4194 29 17.4193 11.7966 36 0L 0 0Z"
       id="path0_fill" />
    <path
       d="M 0 0L 0 -0.5C -0.18018 -0.5 -0.346424 -0.403057 -0.43516 -0.246243C -0.523896 -0.0894284 -0.521398 0.103001 -0.42862 0.257458L 0 0ZM 17.4194 29L 16.9907 29.2575C 17.1064 29.4501 17.3364 29.5419 17.5529 29.4818C 17.7695 29.4218 17.9194 29.2247 17.9194 29L 17.4194 29ZM 36 0L 36.268 0.422113C 36.4557 0.30291 36.5422 0.0740212 36.4801 -0.139541C 36.4181 -0.353104 36.2224 -0.5 36 -0.5L 36 0ZM -0.42862 0.257458L 16.9907 29.2575L 17.848 28.7426L 0.42862 -0.257458L -0.42862 0.257458ZM 17.4194 29C 17.9194 29 17.9194 29.0002 17.9194 29.0003C 17.9194 29.0003 17.9194 29.0004 17.9194 29.0003C 17.9194 29.0001 17.9194 28.9997 17.9194 28.999C 17.9194 28.9976 17.9194 28.9952 17.9194 28.9918C 17.9195 28.9849 17.9196 28.9739 17.9199 28.9589C 17.9204 28.9289 17.9214 28.8829 17.9236 28.8215C 17.9279 28.6987 17.9366 28.5145 17.9543 28.2744C 17.9896 27.7942 18.0606 27.0905 18.2033 26.2074C 18.4887 24.4408 19.0605 21.9584 20.2058 19.1103C 22.4947 13.4187 27.0774 6.25712 36.268 0.422113L 35.732 -0.422113C 26.342 5.53949 21.6343 12.878 19.278 18.7372C 18.1008 21.6645 17.5113 24.2202 17.2161 26.0479C 17.0684 26.9619 16.9943 27.6945 16.957 28.2011C 16.9384 28.4544 16.929 28.6514 16.9242 28.7863C 16.9218 28.8538 16.9206 28.9058 16.92 28.9417C 16.9197 28.9596 16.9195 28.9735 16.9194 28.9832C 16.9194 28.9881 16.9194 28.992 16.9194 28.9948C 16.9194 28.9962 16.9194 28.9973 16.9194 28.9982C 16.9194 28.9986 16.9194 28.9991 16.9194 28.9993C 16.9194 28.9997 16.9194 29 17.4194 29ZM 36 -0.5L 0 -0.5L 0 0.5L 36 0.5L 36 -0.5Z"
       id="path1_stroke" />
    <path
       d="M 366 5.89222C 361.325 100.928 311.104 291 167.652 291L 0.359411 291C 9.04128 212.97 48.644 21.098 161.642 5.89222C 274.64 -9.31353 348.636 10.2272 366 5.89222Z"
       id="path2_fill" />
    <path
       d="M 57.5 13.5C 92.5344 13.5 98.0569 0 130 0C 161.943 0 167.466 13.5 202.5 13.5C 237.534 13.5 259.985 0 259.985 0C 260.329 8.46711 254.625 24.4941 243.805 25.4013L 259.556 24.7101C 254.232 26.9277 227 36.5 236 84L 24 84C 33 36.5 5.76807 26.9277 0.444224 24.7101L 16.1949 25.4013C 5.37546 24.4941 -0.328822 8.46711 0.0146518 0C 0.0146518 0 22.4656 13.5 57.5 13.5Z"
       id="path3_fill" />
    <path
       d="M 0.0146518 0L 0.272312 -0.428499C 0.120965 -0.519505 -0.0671645 -0.523922 -0.222616 -0.440118C -0.378067 -0.356315 -0.477779 -0.196723 -0.484937 -0.0202662L 0.0146518 0ZM 16.1949 25.4013L 16.173 25.9009C 16.445 25.9128 16.6765 25.7049 16.6939 25.4332C 16.7112 25.1615 16.508 24.9258 16.2367 24.9031L 16.1949 25.4013ZM 0.444224 24.7101L 0.466144 24.2106C 0.223897 24.2 0.00893847 24.3647 -0.0438047 24.6014C -0.0965479 24.8381 0.0281285 25.0785 0.251967 25.1717L 0.444224 24.7101ZM 24 84L 23.5087 83.9069C 23.481 84.0532 23.52 84.2043 23.6149 84.319C 23.7099 84.4336 23.8511 84.5 24 84.5L 24 84ZM 259.985 0L 260.485 -0.0202662C 260.478 -0.196723 260.378 -0.356315 260.223 -0.440118C 260.067 -0.523922 259.879 -0.519505 259.728 -0.428499L 259.985 0ZM 243.805 25.4013L 243.763 24.9031C 243.492 24.9258 243.289 25.1615 243.306 25.4332C 243.323 25.7049 243.555 25.9128 243.827 25.9009L 243.805 25.4013ZM 259.556 24.7101L 259.748 25.1717C 259.972 25.0785 260.097 24.8381 260.044 24.6014C 259.991 24.3647 259.776 24.2 259.534 24.2106L 259.556 24.7101ZM 236 84L 236 84.5C 236.149 84.5 236.29 84.4336 236.385 84.319C 236.48 84.2043 236.519 84.0532 236.491 83.9069L 236 84ZM 130 -0.5C 113.941 -0.5 104.508 2.89913 94.7457 6.2775C 85.0143 9.64508 74.9361 13 57.5 13L 57.5 14C 75.0983 14 85.2985 10.6049 95.0727 7.22251C 104.816 3.85088 114.116 0.5 130 0.5L 130 -0.5ZM 57.5 13C 40.047 13 25.7301 9.63732 15.7794 6.27629C 10.8043 4.59584 6.92159 2.91612 4.28537 1.65812C 2.9673 1.02914 1.96099 0.505654 1.28569 0.14031C 0.94804 -0.0423586 0.693162 -0.185484 0.523459 -0.282482C 0.438608 -0.330981 0.375052 -0.367948 0.333094 -0.392558C 0.312115 -0.404864 0.296535 -0.41408 0.286392 -0.420104C 0.28132 -0.423116 0.277608 -0.425331 0.27526 -0.426734C 0.274086 -0.427436 0.273253 -0.427935 0.272761 -0.428229C 0.272516 -0.428377 0.272403 -0.428444 0.27228 -0.428518C 0.272253 -0.428534 0.272312 -0.428499 0.0146518 0C -0.243009 0.428499 -0.242779 0.428637 -0.242463 0.428826C -0.242244 0.428958 -0.241842 0.429199 -0.241403 0.429462C -0.240526 0.429988 -0.239306 0.430719 -0.237744 0.431652C -0.23462 0.433519 -0.23013 0.436197 -0.224276 0.439674C -0.21257 0.446627 -0.195413 0.456774 -0.172844 0.470012C -0.127706 0.496488 -0.0609166 0.535327 0.0272217 0.585705C 0.203497 0.68646 0.465177 0.833374 0.809852 1.01985C 1.49919 1.39278 2.52056 1.92398 3.85469 2.56063C 6.52286 3.83387 10.4425 5.52916 15.4594 7.2237C 25.4928 10.6127 39.9186 14 57.5 14L 57.5 13ZM -0.484937 -0.0202662C -0.660656 4.31143 0.704697 10.5219 3.47658 15.7692C 6.24215 21.0045 10.4896 25.4247 16.1531 25.8996L 16.2367 24.9031C 11.0808 24.4708 7.06635 20.4238 4.36079 15.3021C 1.66154 10.1923 0.346485 4.15568 0.514241 0.0202662L -0.484937 -0.0202662ZM 16.2168 24.9018L 0.466144 24.2106L 0.422303 25.2097L 16.173 25.9009L 16.2168 24.9018ZM 0.251967 25.1717C 2.91595 26.2814 10.9331 29.1858 17.1912 37.6709C 23.4383 46.1413 27.9894 60.259 23.5087 83.9069L 24.4913 84.0931C 29.0106 60.241 24.4458 45.8226 17.996 37.0774C 11.5571 28.347 3.29634 25.3565 0.63648 24.2486L 0.251967 25.1717ZM 130 0.5C 145.884 0.5 155.184 3.85088 164.927 7.22251C 174.702 10.6049 184.902 14 202.5 14L 202.5 13C 185.064 13 174.986 9.64508 165.254 6.2775C 155.492 2.89913 146.059 -0.5 130 -0.5L 130 0.5ZM 202.5 14C 220.081 14 234.507 10.6127 244.541 7.2237C 249.557 5.52916 253.477 3.83387 256.145 2.56063C 257.479 1.92398 258.501 1.39278 259.19 1.01985C 259.535 0.833374 259.797 0.68646 259.973 0.585705C 260.061 0.535327 260.128 0.496488 260.173 0.470012C 260.195 0.456774 260.213 0.446627 260.224 0.439674C 260.23 0.436197 260.235 0.433519 260.238 0.431652C 260.239 0.430719 260.241 0.429988 260.241 0.429462C 260.242 0.429199 260.242 0.428958 260.242 0.428826C 260.243 0.428637 260.243 0.428499 259.985 0C 259.728 -0.428499 259.728 -0.428534 259.728 -0.428518C 259.728 -0.428444 259.727 -0.428377 259.727 -0.428229C 259.727 -0.427935 259.726 -0.427436 259.725 -0.426734C 259.722 -0.425331 259.719 -0.423116 259.714 -0.420104C 259.703 -0.41408 259.688 -0.404864 259.667 -0.392558C 259.625 -0.367948 259.561 -0.330981 259.477 -0.282482C 259.307 -0.185484 259.052 -0.0423586 258.714 0.14031C 258.039 0.505654 257.033 1.02914 255.715 1.65812C 253.078 2.91612 249.196 4.59584 244.221 6.27629C 234.27 9.63732 219.953 13 202.5 13L 202.5 14ZM 259.486 0.0202662C 259.654 4.15568 258.338 10.1923 255.639 15.3021C 252.934 20.4238 248.919 24.4708 243.763 24.9031L 243.847 25.8996C 249.51 25.4247 253.758 21.0045 256.523 15.7692C 259.295 10.5219 260.661 4.31143 260.485 -0.0202662L 259.486 0.0202662ZM 243.827 25.9009L 259.578 25.2097L 259.534 24.2106L 243.783 24.9018L 243.827 25.9009ZM 259.363 24.2486C 256.704 25.3565 248.443 28.347 242.004 37.0774C 235.554 45.8226 230.989 60.241 235.509 84.0931L 236.491 83.9069C 232.011 60.259 236.562 46.1413 242.809 37.6709C 249.067 29.1858 257.084 26.2814 259.748 25.1717L 259.363 24.2486ZM 24 84.5L 236 84.5L 236 83.5L 24 83.5L 24 84.5Z"
       id="path4_stroke" />
    <path
       d="M 238 119C 238 184.722 184.722 238 119 238C 53.2781 238 0 184.722 0 119C 0 53.2781 53.2781 0 119 0C 184.722 0 238 53.2781 238 119Z"
       id="path5_fill" />
    <path
       d="M 190 119C 190 184.722 147.467 238 95 238C 42.5329 238 0 184.722 0 119C 0 53.2781 42.5329 0 95 0C 147.467 0 190 53.2781 190 119Z"
       id="path6_fill" />
    <path
       d="M 83 44.1841C 83 68.5863 56.5 90.7782 41.5 96C 27 91.5816 0 68.5863 0 44.1841C 0 19.7819 18.5802 0 41.5 0C 64.4198 0 83 19.7819 83 44.1841Z"
       id="path7_fill" />
    <path
       d="M 0 7.70886C 1.62699 8.872 1.62647 8.87273 1.626 8.87338C 1.62591 8.87351 1.62548 8.87411 1.62529 8.87438C 1.62491 8.87491 1.62471 8.87518 1.62469 8.8752C 1.62466 8.87524 1.62537 8.87427 1.6268 8.8723C 1.62966 8.86836 1.63543 8.86045 1.64407 8.84878C 1.66135 8.82541 1.69005 8.787 1.72985 8.73509C 1.80948 8.63121 1.93318 8.47372 2.09818 8.27498C 2.42885 7.87668 2.92149 7.31742 3.55385 6.69422C 4.83172 5.43488 6.61434 3.97979 8.72329 3.0272C 10.8085 2.08531 13.1573 1.65569 15.6888 2.32502C 18.2319 2.99745 21.2141 4.84645 24.4261 8.94292L 27.5739 6.47479C 23.9859 1.8988 20.3181 -0.588429 16.7112 -1.54209C 13.0927 -2.49885 9.79146 -1.84441 7.07671 -0.618179C 4.38566 0.597342 2.21828 2.39443 0.746146 3.84523C 0.0035098 4.5771 -0.578847 5.23741 -0.979426 5.71991C -1.18005 5.96157 -1.33604 6.15978 -1.44469 6.30151C -1.49904 6.3724 -1.54162 6.42927 -1.5721 6.47048C -1.58734 6.49109 -1.59956 6.5078 -1.60872 6.5204C -1.6133 6.52671 -1.61712 6.53198 -1.62016 6.53621C -1.62169 6.53832 -1.62302 6.54017 -1.62416 6.54176C -1.62472 6.54255 -1.62543 6.54354 -1.62572 6.54393C -1.62638 6.54486 -1.62699 6.54571 0 7.70886Z"
       id="path8_stroke" />
    <path
       d="M 0 0C 15 19.5254 15 48 15 48C 15 48 15 19.5254 31 0L 0 0Z"
       id="path9_fill" />
    <path
       d="M 0 0L 0 -0.5C -0.190428 -0.5 -0.364323 -0.391831 -0.448499 -0.221017C -0.532675 -0.0502035 -0.512515 0.153595 -0.396504 0.304606L 0 0ZM 14.5 48C 14.5 48.2761 14.7239 48.5 15 48.5C 15.2761 48.5 15.5 48.2761 15.5 48L 14.5 48ZM 31 0L 31.3867 0.316911C 31.5092 0.167427 31.5346 -0.0392671 31.4519 -0.213944C 31.3692 -0.388622 31.1933 -0.5 31 -0.5L 31 0ZM -0.396504 0.304606C 7.03686 9.98057 10.7665 21.8952 12.6343 31.4183C 13.5674 36.1755 14.034 40.3255 14.2672 43.285C 14.3837 44.7646 14.442 45.946 14.471 46.7563C 14.4856 47.1614 14.4928 47.4737 14.4964 47.684C 14.4982 47.7892 14.4991 47.8689 14.4996 47.9219C 14.4998 47.9484 14.4999 47.9683 14.4999 47.9814C 14.5 47.9879 14.5 47.9927 14.5 47.9958C 14.5 47.9974 14.5 47.9985 14.5 47.9992C 14.5 47.9996 14.5 47.9998 14.5 47.9999C 14.5 48 14.5 48 15 48C 15.5 48 15.5 47.9998 15.5 47.9994C 15.5 47.9992 15.5 47.9987 15.5 47.9982C 15.5 47.9971 15.5 47.9957 15.5 47.9938C 15.5 47.99 15.5 47.9844 15.4999 47.9772C 15.4999 47.9627 15.4998 47.9415 15.4995 47.9135C 15.4991 47.8576 15.4981 47.775 15.4963 47.6669C 15.4925 47.4506 15.4851 47.132 15.4704 46.7204C 15.4409 45.8972 15.3819 44.7015 15.2641 43.2065C 15.0285 40.2169 14.5576 36.0279 13.6156 31.2258C 11.7335 21.6302 7.96314 9.54485 0.396504 -0.304606L -0.396504 0.304606ZM 15 48C 15.5 48 15.5 48 15.5 47.9999C 15.5 47.9998 15.5 47.9996 15.5 47.9992C 15.5 47.9986 15.5 47.9975 15.5 47.9959C 15.5 47.9928 15.5 47.988 15.5001 47.9815C 15.5001 47.9685 15.5002 47.9487 15.5005 47.9222C 15.5009 47.8693 15.5019 47.7897 15.5038 47.6846C 15.5077 47.4745 15.5154 47.1624 15.5309 46.7575C 15.5619 45.9476 15.6239 44.7667 15.7482 43.2876C 15.9969 40.3291 16.4944 36.1803 17.4894 31.4244C 19.4811 21.9047 23.4581 9.99251 31.3867 0.316911L 30.6133 -0.316911C 22.5419 9.53291 18.5189 21.6207 16.5106 31.2196C 15.5056 36.0231 15.0031 40.2133 14.7518 43.2039C 14.6261 44.6994 14.5631 45.8956 14.5316 46.7192C 14.5159 47.1311 14.508 47.4498 14.504 47.6663C 14.502 47.7745 14.501 47.8572 14.5005 47.9132C 14.5003 47.9412 14.5001 47.9626 14.5001 47.9771C 14.5 47.9843 14.5 47.9899 14.5 47.9937C 14.5 47.9956 14.5 47.9971 14.5 47.9981C 14.5 47.9987 14.5 47.9991 14.5 47.9994C 14.5 47.9998 14.5 48 15 48ZM 31 -0.5L 0 -0.5L 0 0.5L 31 0.5L 31 -0.5Z"
       id="path10_stroke" />
    <path
       d="M 34.114 0.0226124C 32.0029 20.0226 24.0029 31.5226 0.00290413 31.5226C 0.00290413 31.5226 -0.99707 -0.977386 34.114 0.0226124Z"
       id="path11_fill" />
    <path
       d="M 34.114 0.0226124L 34.6112 0.075097L 34.6679 -0.461814L 34.1282 -0.477185L 34.114 0.0226124ZM 0.00290413 31.5226L -0.496859 31.538L -0.481948 32.0226L 0.00290413 32.0226L 0.00290413 31.5226ZM 33.6167 -0.0298721C 32.5656 9.92904 30.0561 17.6676 24.9096 22.9228C 19.7743 28.1664 11.9277 31.0226 0.00290413 31.0226L 0.00290413 32.0226C 12.0782 32.0226 20.2315 29.1288 25.624 23.6225C 31.0053 18.1276 33.5514 10.1162 34.6112 0.075097L 33.6167 -0.0298721ZM 0.00290413 31.5226C 0.502668 31.5072 0.502672 31.5074 0.502672 31.5074C 0.502668 31.5072 0.502665 31.5071 0.502655 31.5068C 0.502637 31.5062 0.502606 31.505 0.502563 31.5034C 0.502478 31.5002 0.502347 31.495 0.50219 31.488C 0.501876 31.4738 0.501453 31.452 0.501062 31.4227C 0.500282 31.3643 0.499632 31.2762 0.500239 31.1605C 0.501454 30.9291 0.507697 30.5873 0.527973 30.1513C 0.568534 29.2791 0.665195 28.0306 0.889732 26.5343C 1.33919 23.5391 2.29892 19.5646 4.33588 15.6274C 6.37113 11.6935 9.47905 7.80127 14.2289 4.95136C 18.978 2.10192 25.4013 0.274668 34.0997 0.52241L 34.1282 -0.477185C 25.2712 -0.729443 18.6528 1.13081 13.7144 4.09387C 8.77676 7.05646 5.55135 11.1018 3.44771 15.1679C 1.34578 19.2306 0.361073 23.3186 -0.0991958 26.3859C -0.329521 27.9208 -0.429042 29.2037 -0.470948 30.1049C -0.491905 30.5555 -0.498466 30.9111 -0.499747 31.1552C -0.500388 31.2773 -0.499709 31.3716 -0.498848 31.4361C -0.498418 31.4683 -0.497942 31.4931 -0.497564 31.5102C -0.497374 31.5187 -0.497209 31.5253 -0.497086 31.5299C -0.497024 31.5323 -0.496973 31.5341 -0.496934 31.5354C -0.496915 31.5361 -0.496896 31.5368 -0.496886 31.5371C -0.496871 31.5376 -0.496859 31.538 0.00290413 31.5226Z"
       id="path12_stroke" />
  </defs>
</svg>
